HIERARCHY
ROOT Hips
{
	OFFSET -3.958830 18.904000 13.208200
	CHANNELS 6 Xposition Yposition Zposition Zrotation Yrotation Xrotation 
	JOINT LHipJoint
	{
		OFFSET 0.000000 0.000000 0.000000
		CHANNELS 3 Zrotation Yrotation Xrotation
		JOINT LeftUpLeg
		{
			OFFSET 1.800000 -1.400000 0.085000
			CHANNELS 3 Zrotation Yrotation Xrotation
			JOINT LeftLeg
			{
				OFFSET 2.215000 -6.000000 0.000000
				CHANNELS 3 Zrotation Yrotation Xrotation
				JOINT LeftFoot
				{
					OFFSET 2.500000 -6.900000 0.000000
					CHANNELS 3 Zrotation Yrotation Xrotation
					JOINT LeftToeBase
					{
						OFFSET 0.200000 -0.500000 1.950000
						CHANNELS 3 Zrotation Yrotation Xrotation
						End Site
						{
							OFFSET 0.000000 0.000000 0.000000
						}
					}
				}
			}
		}
	}
	JOINT RHipJoint
	{
		OFFSET 0.000000 0.000000 0.000000
		CHANNELS 3 Zrotation Yrotation Xrotation
		JOINT RightUpLeg
		{
			OFFSET -1.800000 -1.400000 0.085000
			CHANNELS 3 Zrotation Yrotation Xrotation
			JOINT RightLeg
			{
				OFFSET -2.215000 -6.000000 0.000000
				CHANNELS 3 Zrotation Yrotation Xrotation
				JOINT RightFoot
				{
					OFFSET -2.500000 -6.900000 0.000000
					CHANNELS 3 Zrotation Yrotation Xrotation
					JOINT RightToeBase
					{
						OFFSET -0.200000 -0.500000 1.950000
						CHANNELS 3 Zrotation Yrotation Xrotation
						End Site
						{
							OFFSET 0.000000 0.000000 0.000000
						}
					}
				}
			}
		}
	}
	JOINT LowerBack
	{
		OFFSET 0.000000 0.000000 0.000000
		CHANNELS 3 Zrotation Yrotation Xrotation
		JOINT Spine
		{
			OFFSET -0.087000 1.940000 -0.288900
			CHANNELS 3 Zrotation Yrotation Xrotation
			JOINT Spine1
			{
				OFFSET 0.000000 1.950000 0.060000
				CHANNELS 3 Zrotation Yrotation Xrotation
				JOINT Neck
				{
					OFFSET 0.000000 0.000000 0.000000
					CHANNELS 3 Zrotation Yrotation Xrotation
					JOINT Neck1
					{
						OFFSET 0.000000 1.600000 0.340000
						CHANNELS 3 Zrotation Yrotation Xrotation
						JOINT Head
						{
							OFFSET 0.000000 1.667000 -0.240000
							CHANNELS 3 Zrotation Yrotation Xrotation
							End Site
							{
								OFFSET 0.000000 0.000000 0.000000
							}
						}
					}
				}
				JOINT LeftShoulder
				{
					OFFSET 0.000000 0.000000 0.000000
					CHANNELS 3 Zrotation Yrotation Xrotation
					JOINT LeftArm
					{
						OFFSET 2.700000 1.550000 -0.730000
						CHANNELS 3 Zrotation Yrotation Xrotation
						JOINT LeftForeArm
						{
							OFFSET 5.450000 0.000000 0.000000
							CHANNELS 3 Zrotation Yrotation Xrotation
							JOINT LeftHand
							{
								OFFSET 3.450000 0.000000 0.000000
								CHANNELS 3 Zrotation Yrotation Xrotation
								JOINT LeftHandIndex1
								{
									OFFSET 0.750000 0.000000 0.000000
									CHANNELS 3 Zrotation Yrotation Xrotation
									End Site
									{
										OFFSET 0.000000 0.000000 0.000000
									}
								}
							}
						}
					}
				}
				JOINT RightShoulder
				{
					OFFSET 0.000000 0.000000 0.000000
					CHANNELS 3 Zrotation Yrotation Xrotation
					JOINT RightArm
					{
						OFFSET -2.700000 1.550000 -0.730000
						CHANNELS 3 Zrotation Yrotation Xrotation
						JOINT RightForeArm
						{
							OFFSET -5.450000 0.000000 0.000000
							CHANNELS 3 Zrotation Yrotation Xrotation
							JOINT RightHand
							{
								OFFSET -3.450000 0.000000 0.000000
								CHANNELS 3 Zrotation Yrotation Xrotation
								JOINT RightHandIndex1
								{
									OFFSET -0.750000 0.000000 0.000000
									CHANNELS 3 Zrotation Yrotation Xrotation
									End Site
									{
										OFFSET 0.000000 0.000000 0.000000
									}
								}
							}
						}
					}
				}
			}
		}
	}
}
MOTION
Frames: 11
Frame Time: 0.016667
-1.661220 17.386720 2.355860 0.424080 64.305601 -3.828492 -15.448119 11.572316 2.409092 29.128277 -1.607987 -13.327577 -9.749406 12.080424 31.087553 -0.679335 8.615931 1.418303 -0.317860 -0.484840 -0.606760 18.324848 -9.979965 3.606780 -25.990943 1.497502 -30.948762 24.203853 -23.467448 44.662064 -1.307477 -9.871790 0.788903 -0.069040 0.990280 0.097190 -6.106190 0.241171 -8.393214 38.996587 -16.502582 28.942314 -18.892175 -6.953691 18.905655 3.903594 -7.175567 -11.756364 -20.768339 -1.652143 43.753602 13.412610 -16.116750 -24.142700 -3.147141 -25.525819 2.502486 -36.756695 -39.699604 2.006060 -129.362648 -68.524081 94.408419 -4.134466 2.102090 0.894010 0.138020 -0.188200 0.090800 -3.831699 24.138992 13.537418 33.790100 5.898480 -11.353702 176.122929 50.828319 141.342074 1.719324 -1.037289 -0.727010 0.993890 0.820750 0.096390 
-1.667100 17.372410 2.381020 0.162534 64.752144 -4.199937 -15.462369 11.610621 2.359277 29.033974 -1.603256 -13.485341 -8.918266 11.862510 31.624676 -0.706287 8.581565 1.431684 -0.322850 -0.493270 -0.611160 18.302208 -10.059602 3.573820 -25.067282 1.729830 -31.012114 23.222036 -23.507316 45.882470 -1.332240 -9.957780 0.766535 -0.068310 1.000500 0.096360 -6.169168 0.342185 -8.359825 39.544923 -16.740096 28.813758 -19.286576 -6.985509 18.747874 3.839854 -7.147409 -11.692007 -20.813304 -1.666306 43.996205 13.542120 -16.219590 -24.172230 -2.844513 -25.599110 2.265046 -35.854062 -39.688174 1.903614 -128.679115 -68.118488 93.097876 -4.143610 2.112865 0.904260 0.140230 -0.189850 0.091580 -4.020560 24.132642 13.597191 34.194896 5.957728 -11.302080 175.618587 50.938024 140.433529 1.717016 -1.025050 -0.738670 1.006170 0.828110 0.094980 
-1.671060 17.355690 2.403750 0.313392 65.175508 -4.169645 -15.468511 11.654893 2.312488 28.807978 -1.637488 -13.635211 -8.189385 11.650288 32.112973 -0.729009 8.549338 1.444694 -0.337730 -0.514440 -0.627210 18.287748 -10.126971 3.555341 -24.445593 1.815187 -31.168229 22.222824 -23.551457 47.081756 -1.347893 -10.060144 0.744188 -0.074540 1.016720 0.100290 -6.208625 0.387256 -8.329515 39.597758 -16.800097 28.659641 -19.502210 -6.983224 18.656326 3.767888 -7.021422 -11.711861 -20.675456 -1.681496 44.334197 13.461390 -16.305930 -23.657180 -2.545812 -25.686063 2.112708 -35.288789 -39.714499 1.875989 -127.919276 -67.841447 91.832995 -4.165028 2.122462 0.906730 0.153500 -0.199770 0.092410 -4.186061 24.114367 13.755191 34.922582 5.834759 -11.232341 175.204925 51.002021 139.628140 1.711918 -1.018634 -0.749410 1.009920 0.841820 0.093390 
-1.672720 17.338940 2.423560 0.495455 65.505703 -4.093726 -15.471402 11.680326 2.274179 28.636879 -1.685399 -13.800862 -7.581729 11.468820 32.534275 -0.730148 8.518621 1.457211 -0.346410 -0.524940 -0.634130 18.279819 -10.189636 3.534883 -23.948404 1.832770 -31.264975 21.404022 -23.535487 47.977745 -1.355623 -10.130554 0.723278 -0.081070 1.029140 0.108310 -6.249002 0.444987 -8.303452 39.512439 -16.786993 28.492611 -19.697124 -6.970065 18.693278 3.673124 -6.908098 -11.663634 -20.512058 -1.768898 44.537470 13.438160 -16.452260 -23.005210 -2.264187 -25.619337 1.908311 -35.103539 -40.034714 2.034351 -126.612466 -67.758634 90.178916 -4.192338 2.130980 0.892690 0.165490 -0.207390 0.090740 -4.282494 23.928202 13.862351 35.825643 5.732797 -11.114401 174.951593 51.049837 139.167281 1.720515 -1.026330 -0.744540 1.003970 0.847420 0.099690 
-1.671170 17.323880 2.439850 0.922088 65.780755 -3.873224 -15.469263 11.703567 2.232951 28.383527 -1.752377 -13.860973 -7.071633 11.331418 33.009113 -0.748468 8.508702 1.459095 -0.351550 -0.534350 -0.645100 18.277784 -10.250368 3.517417 -23.662721 1.786205 -31.352207 20.570892 -23.526122 48.911962 -1.360655 -10.215331 0.702688 -0.078380 1.039130 0.104940 -6.284085 0.492353 -8.274569 39.233825 -16.742853 28.403362 -19.845747 -6.990744 18.808504 3.576295 -6.879329 -11.570948 -20.560436 -1.739223 44.841149 13.480450 -16.618920 -22.482320 -1.845401 -25.247137 1.696225 -35.403954 -40.474683 2.378662 -125.525261 -67.712968 88.808771 -4.212300 2.134688 0.890250 0.174750 -0.222150 0.090510 -4.492834 23.506465 13.867386 36.718571 5.705723 -10.966379 174.534353 51.174828 138.526140 1.715066 -1.032527 -0.753840 1.005010 0.856080 0.096990 
-1.667340 17.308420 2.451680 1.271080 65.965474 -3.618027 -15.463092 11.685542 2.193540 28.162889 -1.792233 -14.005444 -6.711799 11.251066 33.438559 -0.730410 8.486196 1.460555 -0.344080 -0.515720 -0.659290 18.288146 -10.296715 3.514609 -23.514683 1.757726 -31.561735 19.995566 -23.558544 49.660576 -1.371225 -10.303163 0.672105 -0.072690 1.037020 0.112380 -6.336466 0.587640 -8.254600 39.125830 -16.658295 28.115276 -20.162593 -6.969329 18.997679 3.479430 -6.892032 -11.458651 -20.742388 -1.621339 45.216958 13.542850 -16.839360 -21.645390 -1.233907 -24.596759 1.498331 -36.084697 -41.096510 2.929251 -124.409185 -67.753774 87.551161 -4.221451 2.171141 0.861550 0.180740 -0.228520 0.096090 -4.896790 22.858772 13.765395 37.788474 5.864826 -10.704288 174.122463 51.435537 138.124418 1.719973 -1.068858 -0.731060 0.980180 0.849890 0.110980 
-1.661620 17.295340 2.461860 1.254614 66.095755 -3.629723 -15.463788 11.662352 2.170289 28.145693 -1.763435 -14.174694 -6.429639 11.207485 33.702548 -0.717130 8.465070 1.465285 -0.331150 -0.493260 -0.665070 18.293678 -10.326566 3.503749 -23.239182 1.826307 -31.731959 19.507915 -23.537054 50.248857 -1.382928 -10.352867 0.664145 -0.063040 1.030370 0.105590 -6.388256 0.680314 -8.240866 39.258391 -16.521728 27.756206 -20.436269 -6.855750 19.102503 3.416061 -6.922906 -11.401530 -21.179742 -1.243467 46.094307 13.769740 -16.955470 -21.058360 -0.642451 -23.714779 1.331895 -37.279943 -41.880400 3.827393 -122.984796 -67.808792 86.005824 -4.223092 2.186658 0.846800 0.177640 -0.229520 0.108670 -5.345015 22.035035 13.607119 38.665422 5.901007 -10.382660 173.202653 51.696794 136.887634 1.724540 -1.093581 -0.719780 0.971670 0.834920 0.118770 
-1.649890 17.285900 2.467580 0.805487 66.180398 -3.972551 -15.472877 11.617570 2.154378 28.328344 -1.682723 -14.354985 -6.227493 11.209814 33.882204 -0.686613 8.457539 1.472546 -0.312930 -0.466650 -0.663250 18.296294 -10.341719 3.488799 -22.970053 1.932480 -31.824017 19.282481 -23.563635 50.598424 -1.400821 -10.389120 0.656237 -0.058090 1.026970 0.105400 -6.451986 0.805564 -8.230538 39.855160 -16.450043 27.188083 -20.886113 -6.724562 19.294063 3.432573 -7.078523 -11.414861 -21.952424 -0.783797 46.963742 14.007460 -17.221070 -20.465780 0.074847 -22.685491 1.305680 -38.944992 -42.666233 4.810895 -121.894193 -67.983638 84.959697 -4.218075 2.200055 0.829250 0.172000 -0.224680 0.126190 -6.060804 21.176042 13.414624 39.394835 5.956919 -9.997165 172.412354 51.804654 135.839229 1.734951 -1.128972 -0.699930 0.961780 0.811630 0.134790 
-1.634940 17.275220 2.468080 0.257809 66.267002 -4.129750 -15.479837 11.528743 2.166267 28.667135 -1.549748 -14.744681 -6.303579 11.327426 33.890875 -0.643005 8.455092 1.484005 -0.294690 -0.426000 -0.664890 18.310397 -10.316456 3.499333 -22.882305 2.073921 -32.193979 19.302828 -23.697268 50.830804 -1.424130 -10.429099 0.662042 -0.049450 1.026270 0.092560 -6.506172 0.933660 -8.246465 40.604507 -16.258347 26.389637 -21.392930 -6.472307 19.322346 3.553420 -7.140105 -11.376328 -22.516121 -0.397058 48.015947 14.207520 -17.436410 -20.058370 0.535169 -21.282453 1.252214 -41.222423 -43.619965 6.420800 -120.350208 -67.945420 83.354228 -4.213823 2.214593 0.804980 0.167650 -0.216840 0.151320 -6.755002 19.977434 13.060947 39.982425 6.210116 -9.370220 171.124668 51.980402 134.135764 1.747497 -1.155350 -0.679700 0.967890 0.779660 0.156350 
-1.622720 17.265440 2.465070 0.250700 66.376267 -3.756223 -15.473791 11.429373 2.191436 28.897404 -1.435241 -15.074520 -6.672780 11.527537 33.766094 -0.630937 8.481275 1.484129 -0.274420 -0.400840 -0.646110 18.336684 -10.272972 3.537128 -23.257359 2.142958 -32.603745 19.635845 -23.907283 50.806654 -1.441822 -10.463288 0.666157 -0.037160 1.020670 0.073500 -6.529354 1.022390 -8.272088 40.996714 -15.908256 25.739187 -21.699423 -6.128609 19.496314 3.760809 -7.141806 -11.342814 -22.833025 -0.145503 49.066171 14.161390 -17.536890 -20.058210 1.132613 -19.743434 1.270305 -43.916362 -44.553577 8.149437 -119.541202 -67.979052 82.665636 -4.204905 2.205420 0.807200 0.159710 -0.211310 0.167380 -7.728752 18.709759 12.701833 40.637062 6.723208 -8.603003 170.236001 51.915829 132.935351 1.747202 -1.173469 -0.683670 0.985960 0.753680 0.155800 
-1.614050 17.255370 2.455130 0.756841 66.472191 -2.663600 -15.448313 11.305761 2.233174 29.009153 -1.354874 -15.592566 -7.259896 11.782455 33.586654 -0.614530 8.510834 1.469839 -0.250000 -0.377630 -0.619270 18.387553 -10.197148 3.613598 -24.052712 2.128694 -33.377409 20.107666 -24.180496 50.668260 -1.457326 -10.502181 0.650935 -0.030430 1.001870 0.073620 -6.520772 1.063641 -8.314213 41.062755 -15.358402 25.049394 -21.824774 -5.655729 19.596749 3.948519 -7.003639 -11.356057 -22.781041 -0.012425 50.107618 14.261130 -17.544220 -20.216390 1.679182 -18.224625 1.372548 -46.787396 -45.473748 10.037665 -118.647245 -68.239472 82.212803 -4.197647 2.206876 0.809630 0.147730 -0.198030 0.173170 -8.632799 17.430378 12.331854 41.143106 7.258965 -7.753490 169.175534 51.882916 131.498850 1.752350 -1.200485 -0.672260 0.978480 0.731180 0.152690 
